# xmcd
# Track frame offsets:
# 150
# 13271
# 26768
# 41839
# 55336
# 70932
# 87129
# 99876
# 114047
# 126418
# 146590
# 156486
#
# Disc length: 2244 seconds
# Revision: 0
# Processed by: cddbd v1.5.2PL0 Copyright (c) Steve Scherf et al.
# Submitted via: VisiTrax 2.11.3.279 - For more info visit www.synapsa.com
#
DISCID=a208c20c
DTITLE=Lee Kernaghan - The Christmas Album
DYEAR=1998
DGENRE=Christmas
TTITLE0=Santa Claus Is Back In Town
TTITLE1=It Must Be Christmas
TTITLE2=Mary's Boy Child
TTITLE3=Merry Merry Christmas
TTITLE4=Christmas Waltz
TTITLE5=Have Yourself A Merry Little Christmas
TTITLE6=Blue Christmas
TTITLE7=It Still Feels Like Christmas To Me
TTITLE8=O' Little Town Of Bethlehem
TTITLE9=Silent Night
TTITLE10=We Wish You Merry Christmas
TTITLE11=Away In A Manger
EXTD=
EXTT0=
EXTT1=
EXTT2=
EXTT3=
EXTT4=
EXTT5=
EXTT6=
EXTT7=
EXTT8=
EXTT9=
EXTT10=
EXTT11=
PLAYORDER=
